<svg width="337" height="20" fill="none" xmlns="http://www.w3.org/2000/svg"><path d="M27.691 8.763H6.645l4.624-4.624c.638-.638.638-1.594 0-2.232-.638-.638-1.594-.638-2.232 0L1.703 9.24c-.638.638-.638 1.594 0 2.232l7.334 7.334c.638.638 1.594.638 2.232 0 .638-.637.638-1.594 0-2.232l-4.624-4.624h21.046c.797 0 1.595-.637 1.595-1.594 0-.957-.798-1.594-1.595-1.594Z" fill="#458FF6" opacity=".4"/><path d="M308.737 11.237h21.046l-4.623 4.624c-.638.638-.638 1.595 0 2.232.637.638 1.594.638 2.232 0l7.334-7.334c.638-.638.638-1.594 0-2.232l-7.334-7.334c-.638-.638-1.595-.638-2.232 0-.638.637-.638 1.594 0 2.232l4.623 4.624h-21.046c-.797 0-1.594.637-1.594 1.594 0 .957.797 1.594 1.594 1.594Z" fill="#458FF6"/><circle opacity=".3" cx="154" cy="10" r="5" fill="#5B9BF3"/><circle opacity=".3" cx="182" cy="10" r="5" fill="#5B9BF3"/><circle opacity=".3" cx="210" cy="10" r="5" fill="#5B9BF3"/><circle cx="126" cy="10" r="5" fill="#5B9BF3"/></svg>