<svg width="86" height="115" fill="none" xmlns="http://www.w3.org/2000/svg"><g opacity=".3"><mask id="b" style="mask-type:alpha" maskUnits="userSpaceOnUse" x="0" y="0" width="11" height="11"><path d="M5.228 10.425c2.888 0 5.229-2.334 5.229-5.213C10.457 2.334 8.116 0 5.228 0 2.341 0 0 2.334 0 5.212c0 2.88 2.34 5.213 5.228 5.213Z" fill="url(#a)"/></mask><g mask="url(#b)"><path d="M5.228 10.425c2.888 0 5.229-2.334 5.229-5.213C10.457 2.334 8.116 0 5.228 0 2.341 0 0 2.334 0 5.212c0 2.88 2.34 5.213 5.228 5.213Z" fill="url(#c)"/></g><mask id="e" style="mask-type:alpha" maskUnits="userSpaceOnUse" x="30" y="0" width="11" height="11"><path d="M35.51 10.425c2.887 0 5.228-2.334 5.228-5.213C40.738 2.334 38.397 0 35.51 0c-2.888 0-5.229 2.334-5.229 5.212 0 2.88 2.34 5.213 5.229 5.213Z" fill="url(#d)"/></mask><g mask="url(#e)"><path d="M35.51 10.425c2.887 0 5.228-2.334 5.228-5.213C40.738 2.334 38.397 0 35.51 0c-2.888 0-5.229 2.334-5.229 5.212 0 2.88 2.34 5.213 5.229 5.213Z" fill="url(#f)"/></g><mask id="h" style="mask-type:alpha" maskUnits="userSpaceOnUse" x="60" y="0" width="12" height="11"><path d="M65.79 10.425c2.888 0 5.229-2.334 5.229-5.213C71.019 2.334 68.679 0 65.79 0c-2.887 0-5.228 2.334-5.228 5.212 0 2.88 2.341 5.213 5.228 5.213Z" fill="url(#g)"/></mask><g mask="url(#h)"><path d="M65.79 10.425c2.888 0 5.229-2.334 5.229-5.213C71.019 2.334 68.679 0 65.79 0c-2.887 0-5.228 2.334-5.228 5.212 0 2.88 2.341 5.213 5.228 5.213Z" fill="url(#i)"/></g><mask id="k" style="mask-type:alpha" maskUnits="userSpaceOnUse" x="0" y="26" width="11" height="11"><path d="M5.228 36.596c2.888 0 5.229-2.334 5.229-5.213 0-2.878-2.341-5.212-5.229-5.212C2.341 26.17 0 28.505 0 31.383c0 2.88 2.34 5.213 5.228 5.213Z" fill="url(#j)"/></mask><g mask="url(#k)"><path d="M5.228 36.596c2.888 0 5.229-2.334 5.229-5.213 0-2.878-2.341-5.212-5.229-5.212C2.341 26.17 0 28.505 0 31.383c0 2.88 2.34 5.213 5.228 5.213Z" fill="url(#l)"/></g><mask id="n" style="mask-type:alpha" maskUnits="userSpaceOnUse" x="30" y="26" width="11" height="11"><path d="M35.51 36.596c2.887 0 5.228-2.334 5.228-5.213 0-2.878-2.341-5.212-5.228-5.212-2.888 0-5.229 2.334-5.229 5.212 0 2.88 2.34 5.213 5.229 5.213Z" fill="url(#m)"/></mask><g mask="url(#n)"><path d="M35.51 36.596c2.887 0 5.228-2.334 5.228-5.213 0-2.878-2.341-5.212-5.228-5.212-2.888 0-5.229 2.334-5.229 5.212 0 2.88 2.34 5.213 5.229 5.213Z" fill="url(#o)"/></g><mask id="q" style="mask-type:alpha" maskUnits="userSpaceOnUse" x="60" y="26" width="12" height="11"><path d="M65.79 36.596c2.888 0 5.229-2.334 5.229-5.213 0-2.878-2.34-5.212-5.229-5.212-2.887 0-5.228 2.334-5.228 5.212 0 2.88 2.341 5.213 5.228 5.213Z" fill="url(#p)"/></mask><g mask="url(#q)"><path d="M65.79 36.596c2.888 0 5.229-2.334 5.229-5.213 0-2.878-2.34-5.212-5.229-5.212-2.887 0-5.228 2.334-5.228 5.212 0 2.88 2.341 5.213 5.228 5.213Z" fill="url(#r)"/></g><mask id="t" style="mask-type:alpha" maskUnits="userSpaceOnUse" x="0" y="52" width="11" height="11"><path d="M5.228 62.713c2.888 0 5.229-2.334 5.229-5.213s-2.341-5.212-5.229-5.212C2.341 52.288 0 54.62 0 57.5c0 2.879 2.34 5.213 5.228 5.213Z" fill="url(#s)"/></mask><g mask="url(#t)"><path d="M5.228 62.713c2.888 0 5.229-2.334 5.229-5.213s-2.341-5.212-5.229-5.212C2.341 52.288 0 54.62 0 57.5c0 2.879 2.34 5.213 5.228 5.213Z" fill="url(#u)"/></g><mask id="w" style="mask-type:alpha" maskUnits="userSpaceOnUse" x="30" y="52" width="11" height="11"><path d="M35.51 62.713c2.887 0 5.228-2.334 5.228-5.213s-2.341-5.212-5.228-5.212c-2.888 0-5.229 2.333-5.229 5.212 0 2.879 2.34 5.213 5.229 5.213Z" fill="url(#v)"/></mask><g mask="url(#w)"><path d="M35.51 62.713c2.887 0 5.228-2.334 5.228-5.213s-2.341-5.212-5.228-5.212c-2.888 0-5.229 2.333-5.229 5.212 0 2.879 2.34 5.213 5.229 5.213Z" fill="url(#x)"/></g><mask id="z" style="mask-type:alpha" maskUnits="userSpaceOnUse" x="60" y="52" width="12" height="11"><path d="M65.79 62.713c2.888 0 5.229-2.334 5.229-5.213s-2.34-5.212-5.229-5.212c-2.887 0-5.228 2.333-5.228 5.212 0 2.879 2.341 5.213 5.228 5.213Z" fill="url(#y)"/></mask><g mask="url(#z)"><path d="M65.79 62.713c2.888 0 5.229-2.334 5.229-5.213s-2.34-5.212-5.229-5.212c-2.887 0-5.228 2.333-5.228 5.212 0 2.879 2.341 5.213 5.228 5.213Z" fill="url(#A)"/></g><mask id="C" style="mask-type:alpha" maskUnits="userSpaceOnUse" x="0" y="78" width="11" height="11"><path d="M5.228 88.883c2.888 0 5.229-2.333 5.229-5.212 0-2.879-2.341-5.213-5.229-5.213C2.341 78.459 0 80.793 0 83.671s2.34 5.212 5.228 5.212Z" fill="url(#B)"/></mask><g mask="url(#C)"><path d="M5.228 88.883c2.888 0 5.229-2.333 5.229-5.212 0-2.879-2.341-5.213-5.229-5.213C2.341 78.459 0 80.793 0 83.671s2.34 5.212 5.228 5.212Z" fill="url(#D)"/></g><mask id="F" style="mask-type:alpha" maskUnits="userSpaceOnUse" x="30" y="78" width="11" height="11"><path d="M35.51 88.883c2.887 0 5.228-2.333 5.228-5.212 0-2.879-2.341-5.213-5.228-5.213-2.888 0-5.229 2.334-5.229 5.213s2.34 5.212 5.229 5.212Z" fill="url(#E)"/></mask><g mask="url(#F)"><path d="M35.51 88.883c2.887 0 5.228-2.333 5.228-5.212 0-2.879-2.341-5.213-5.228-5.213-2.888 0-5.229 2.334-5.229 5.213s2.34 5.212 5.229 5.212Z" fill="url(#G)"/></g><mask id="I" style="mask-type:alpha" maskUnits="userSpaceOnUse" x="60" y="78" width="12" height="11"><path d="M65.79 88.883c2.888 0 5.229-2.333 5.229-5.212 0-2.879-2.34-5.213-5.229-5.213-2.887 0-5.228 2.334-5.228 5.213s2.341 5.212 5.228 5.212Z" fill="url(#H)"/></mask><g mask="url(#I)"><path d="M65.79 88.883c2.888 0 5.229-2.333 5.229-5.212 0-2.879-2.34-5.213-5.229-5.213-2.887 0-5.228 2.334-5.228 5.213s2.341 5.212 5.228 5.212Z" fill="url(#J)"/></g><mask id="L" style="mask-type:alpha" maskUnits="userSpaceOnUse" x="0" y="104" width="11" height="11"><path d="M5.228 115c2.888 0 5.229-2.334 5.229-5.213 0-2.878-2.341-5.212-5.229-5.212-2.887 0-5.228 2.334-5.228 5.212C0 112.666 2.34 115 5.228 115Z" fill="url(#K)"/></mask><g mask="url(#L)"><path d="M5.228 115c2.888 0 5.229-2.334 5.229-5.213 0-2.878-2.341-5.212-5.229-5.212-2.887 0-5.228 2.334-5.228 5.212C0 112.666 2.34 115 5.228 115Z" fill="url(#M)"/></g><mask id="O" style="mask-type:alpha" maskUnits="userSpaceOnUse" x="30" y="104" width="11" height="11"><path d="M35.51 115c2.887 0 5.228-2.334 5.228-5.213 0-2.878-2.341-5.212-5.228-5.212-2.888 0-5.229 2.334-5.229 5.212 0 2.879 2.34 5.213 5.229 5.213Z" fill="url(#N)"/></mask><g mask="url(#O)"><path d="M35.51 115c2.887 0 5.228-2.334 5.228-5.213 0-2.878-2.341-5.212-5.228-5.212-2.888 0-5.229 2.334-5.229 5.212 0 2.879 2.34 5.213 5.229 5.213Z" fill="url(#P)"/></g><mask id="R" style="mask-type:alpha" maskUnits="userSpaceOnUse" x="60" y="104" width="12" height="11"><path d="M65.79 115c2.888 0 5.229-2.334 5.229-5.213 0-2.878-2.34-5.212-5.229-5.212-2.887 0-5.228 2.334-5.228 5.212 0 2.879 2.341 5.213 5.228 5.213Z" fill="url(#Q)"/></mask><g mask="url(#R)"><path d="M65.79 115c2.888 0 5.229-2.334 5.229-5.213 0-2.878-2.34-5.212-5.229-5.212-2.887 0-5.228 2.334-5.228 5.212 0 2.879 2.341 5.213 5.228 5.213Z" fill="url(#S)"/></g></g><defs><linearGradient id="a" x1="54.996" y1="131.134" x2="-16.406" y2="-50.67" gradientUnits="userSpaceOnUse"><stop/><stop offset="1" stop-color="#fff"/></linearGradient><linearGradient id="c" x1="54.996" y1="131.134" x2="-16.406" y2="-50.67" gradientUnits="userSpaceOnUse"><stop stop-color="#97C3F9"/><stop offset="1" stop-color="#93C1F9"/></linearGradient><linearGradient id="d" x1="81.201" y1="120.843" x2="9.799" y2="-60.961" gradientUnits="userSpaceOnUse"><stop/><stop offset="1" stop-color="#fff"/></linearGradient><linearGradient id="f" x1="81.201" y1="120.843" x2="9.799" y2="-60.961" gradientUnits="userSpaceOnUse"><stop stop-color="#97C3F9"/><stop offset="1" stop-color="#93C1F9"/></linearGradient><linearGradient id="g" x1="107.405" y1="110.551" x2="36.003" y2="-71.253" gradientUnits="userSpaceOnUse"><stop/><stop offset="1" stop-color="#fff"/></linearGradient><linearGradient id="i" x1="107.405" y1="110.551" x2="36.003" y2="-71.253" gradientUnits="userSpaceOnUse"><stop stop-color="#97C3F9"/><stop offset="1" stop-color="#93C1F9"/></linearGradient><linearGradient id="j" x1="46.054" y1="134.645" x2="-25.347" y2="-47.157" gradientUnits="userSpaceOnUse"><stop/><stop offset="1" stop-color="#fff"/></linearGradient><linearGradient id="l" x1="46.054" y1="134.645" x2="-25.347" y2="-47.157" gradientUnits="userSpaceOnUse"><stop stop-color="#97C3F9"/><stop offset="1" stop-color="#93C1F9"/></linearGradient><linearGradient id="m" x1="72.258" y1="124.354" x2=".858" y2="-57.449" gradientUnits="userSpaceOnUse"><stop/><stop offset="1" stop-color="#fff"/></linearGradient><linearGradient id="o" x1="72.258" y1="124.354" x2=".858" y2="-57.449" gradientUnits="userSpaceOnUse"><stop stop-color="#97C3F9"/><stop offset="1" stop-color="#93C1F9"/></linearGradient><linearGradient id="p" x1="98.462" y1="114.062" x2="27.062" y2="-67.74" gradientUnits="userSpaceOnUse"><stop/><stop offset="1" stop-color="#fff"/></linearGradient><linearGradient id="r" x1="98.462" y1="114.062" x2="27.062" y2="-67.74" gradientUnits="userSpaceOnUse"><stop stop-color="#97C3F9"/><stop offset="1" stop-color="#93C1F9"/></linearGradient><linearGradient id="s" x1="37.111" y1="138.158" x2="-34.29" y2="-43.646" gradientUnits="userSpaceOnUse"><stop/><stop offset="1" stop-color="#fff"/></linearGradient><linearGradient id="u" x1="37.111" y1="138.158" x2="-34.29" y2="-43.646" gradientUnits="userSpaceOnUse"><stop stop-color="#97C3F9"/><stop offset="1" stop-color="#93C1F9"/></linearGradient><linearGradient id="v" x1="63.316" y1="127.867" x2="-8.086" y2="-53.937" gradientUnits="userSpaceOnUse"><stop/><stop offset="1" stop-color="#fff"/></linearGradient><linearGradient id="x" x1="63.316" y1="127.867" x2="-8.086" y2="-53.937" gradientUnits="userSpaceOnUse"><stop stop-color="#97C3F9"/><stop offset="1" stop-color="#93C1F9"/></linearGradient><linearGradient id="y" x1="89.52" y1="117.575" x2="18.119" y2="-64.229" gradientUnits="userSpaceOnUse"><stop/><stop offset="1" stop-color="#fff"/></linearGradient><linearGradient id="A" x1="89.52" y1="117.575" x2="18.119" y2="-64.229" gradientUnits="userSpaceOnUse"><stop stop-color="#97C3F9"/><stop offset="1" stop-color="#93C1F9"/></linearGradient><linearGradient id="B" x1="28.169" y1="141.67" x2="-43.233" y2="-40.134" gradientUnits="userSpaceOnUse"><stop/><stop offset="1" stop-color="#fff"/></linearGradient><linearGradient id="D" x1="28.169" y1="141.67" x2="-43.233" y2="-40.134" gradientUnits="userSpaceOnUse"><stop stop-color="#97C3F9"/><stop offset="1" stop-color="#93C1F9"/></linearGradient><linearGradient id="E" x1="54.373" y1="131.379" x2="-17.028" y2="-50.425" gradientUnits="userSpaceOnUse"><stop/><stop offset="1" stop-color="#fff"/></linearGradient><linearGradient id="G" x1="54.373" y1="131.379" x2="-17.028" y2="-50.425" gradientUnits="userSpaceOnUse"><stop stop-color="#97C3F9"/><stop offset="1" stop-color="#93C1F9"/></linearGradient><linearGradient id="H" x1="80.578" y1="121.087" x2="9.176" y2="-60.717" gradientUnits="userSpaceOnUse"><stop/><stop offset="1" stop-color="#fff"/></linearGradient><linearGradient id="J" x1="80.578" y1="121.087" x2="9.176" y2="-60.717" gradientUnits="userSpaceOnUse"><stop stop-color="#97C3F9"/><stop offset="1" stop-color="#93C1F9"/></linearGradient><linearGradient id="K" x1="19.227" y1="145.182" x2="-52.175" y2="-36.622" gradientUnits="userSpaceOnUse"><stop/><stop offset="1" stop-color="#fff"/></linearGradient><linearGradient id="M" x1="19.227" y1="145.182" x2="-52.175" y2="-36.622" gradientUnits="userSpaceOnUse"><stop stop-color="#97C3F9"/><stop offset="1" stop-color="#93C1F9"/></linearGradient><linearGradient id="N" x1="45.431" y1="134.89" x2="-25.971" y2="-46.913" gradientUnits="userSpaceOnUse"><stop/><stop offset="1" stop-color="#fff"/></linearGradient><linearGradient id="P" x1="45.431" y1="134.89" x2="-25.971" y2="-46.913" gradientUnits="userSpaceOnUse"><stop stop-color="#97C3F9"/><stop offset="1" stop-color="#93C1F9"/></linearGradient><linearGradient id="Q" x1="71.635" y1="124.599" x2=".234" y2="-57.205" gradientUnits="userSpaceOnUse"><stop/><stop offset="1" stop-color="#fff"/></linearGradient><linearGradient id="S" x1="71.635" y1="124.599" x2=".234" y2="-57.205" gradientUnits="userSpaceOnUse"><stop stop-color="#97C3F9"/><stop offset="1" stop-color="#93C1F9"/></linearGradient></defs></svg>