<svg width="200" height="56" fill="none" xmlns="http://www.w3.org/2000/svg"><rect x=".7" y=".7" width="198.6" height="54.6" rx="27.3" stroke="#458FF6" stroke-width="1.4"/><path d="M44.386 21.184h4.716c2.1 0 3.726.558 4.878 1.674 1.164 1.116 1.746 2.688 1.746 4.716 0 2.04-.582 3.624-1.746 4.752C52.828 33.442 51.202 34 49.102 34h-4.716V21.184Zm4.572 10.926c2.952 0 4.428-1.512 4.428-4.536 0-3-1.476-4.5-4.428-4.5h-2.25v9.036h2.25Zm13.099 2.034c-.924 0-1.74-.192-2.448-.576a4.019 4.019 0 0 1-1.62-1.638c-.372-.72-.558-1.56-.558-2.52s.186-1.794.558-2.502a3.992 3.992 0 0 1 1.62-1.656c.708-.384 1.524-.576 2.448-.576.912 0 1.716.192 2.412.576a3.88 3.88 0 0 1 1.602 1.656c.384.708.576 1.542.576 2.502 0 .96-.192 1.8-.576 2.52a3.905 3.905 0 0 1-1.602 1.638c-.696.384-1.5.576-2.412.576Zm-.018-1.764c.768 0 1.35-.246 1.746-.738.408-.504.612-1.248.612-2.232 0-.972-.204-1.71-.612-2.214-.408-.516-.984-.774-1.728-.774-.756 0-1.338.258-1.746.774-.408.504-.612 1.242-.612 2.214 0 .984.198 1.728.594 2.232.408.492.99.738 1.746.738ZM82.9 24.91 79.337 34h-1.962l-2.25-5.958L72.93 34h-1.98l-3.564-9.09h2.304l2.34 6.408 2.358-6.408h1.62l2.358 6.462 2.34-6.462h2.196Zm6.62-.234c2.173 0 3.259 1.248 3.259 3.744V34h-2.25v-5.472c0-.72-.138-1.242-.414-1.566-.276-.336-.702-.504-1.278-.504-.684 0-1.236.222-1.656.666-.42.432-.63 1.008-.63 1.728V34H84.32v-6.516c0-.96-.048-1.818-.144-2.574h2.106l.162 1.494a3.308 3.308 0 0 1 1.26-1.278 3.68 3.68 0 0 1 1.818-.45Zm5.644-3.924h2.232V34h-2.232V20.752Zm8.816 13.392c-.924 0-1.74-.192-2.448-.576a4.02 4.02 0 0 1-1.62-1.638c-.372-.72-.558-1.56-.558-2.52s.186-1.794.558-2.502a3.993 3.993 0 0 1 1.62-1.656c.708-.384 1.524-.576 2.448-.576.912 0 1.716.192 2.412.576a3.88 3.88 0 0 1 1.602 1.656c.384.708.576 1.542.576 2.502 0 .96-.192 1.8-.576 2.52a3.905 3.905 0 0 1-1.602 1.638c-.696.384-1.5.576-2.412.576Zm-.018-1.764c.768 0 1.35-.246 1.746-.738.408-.504.612-1.248.612-2.232 0-.972-.204-1.71-.612-2.214-.408-.516-.984-.774-1.728-.774-.756 0-1.338.258-1.746.774-.408.504-.612 1.242-.612 2.214 0 .984.198 1.728.594 2.232.408.492.99.738 1.746.738Zm15.242-7.47V34h-2.214v-1.458c-.276.504-.672.9-1.188 1.188-.516.276-1.104.414-1.764.414-.792 0-1.494-.192-2.106-.576-.612-.384-1.086-.93-1.422-1.638-.336-.708-.504-1.53-.504-2.466 0-.936.168-1.764.504-2.484.348-.732.828-1.296 1.44-1.692.612-.408 1.308-.612 2.088-.612.66 0 1.248.144 1.764.432.516.276.912.666 1.188 1.17V24.91h2.214Zm-4.554 7.47c.744 0 1.32-.258 1.728-.774.408-.516.612-1.242.612-2.178 0-.96-.204-1.698-.612-2.214-.408-.516-.99-.774-1.746-.774-.744 0-1.326.27-1.746.81-.408.528-.612 1.266-.612 2.214 0 .936.204 1.656.612 2.16.42.504 1.008.756 1.764.756Zm15.699-11.628V34h-2.214v-1.458c-.276.504-.672.9-1.188 1.188-.516.276-1.104.414-1.764.414-.78 0-1.476-.198-2.088-.594-.612-.396-1.092-.954-1.44-1.674-.336-.732-.504-1.566-.504-2.502 0-.936.168-1.758.504-2.466.336-.708.81-1.254 1.422-1.638.612-.396 1.314-.594 2.106-.594.648 0 1.224.138 1.728.414.516.264.912.642 1.188 1.134v-5.472h2.25Zm-4.572 11.628c.744 0 1.32-.258 1.728-.774.42-.516.63-1.248.63-2.196 0-.948-.204-1.68-.612-2.196-.408-.516-.984-.774-1.728-.774-.756 0-1.344.258-1.764.774-.408.504-.612 1.224-.612 2.16 0 .948.204 1.686.612 2.214.42.528 1.002.792 1.746.792ZM151.107 21.852v11.25l-2.589-2.471a.892.892 0 0 0-1.25 0 .799.799 0 0 0 0 1.193l4.107 3.92c.357.341.893.341 1.25 0l4.107-3.92a.799.799 0 0 0 0-1.193.892.892 0 0 0-1.25 0l-2.589 2.471v-11.25A.874.874 0 0 0 152 21a.874.874 0 0 0-.893.852Z" fill="#458FF6"/></svg>