<svg width="132" height="115" fill="none" xmlns="http://www.w3.org/2000/svg"><g opacity=".3"><mask id="b" style="mask-type:alpha" maskUnits="userSpaceOnUse" x="0" y="0" width="11" height="11"><path d="M5.228 10.425c2.888 0 5.229-2.334 5.229-5.213C10.457 2.334 8.116 0 5.228 0 2.341 0 0 2.334 0 5.212c0 2.88 2.34 5.213 5.228 5.213Z" fill="url(#a)"/></mask><g mask="url(#b)"><path d="M5.228 10.425c2.888 0 5.229-2.334 5.229-5.213C10.457 2.334 8.116 0 5.228 0 2.341 0 0 2.334 0 5.212c0 2.88 2.34 5.213 5.228 5.213Z" fill="url(#c)"/></g><mask id="e" style="mask-type:alpha" maskUnits="userSpaceOnUse" x="30" y="0" width="11" height="11"><path d="M35.51 10.425c2.887 0 5.228-2.334 5.228-5.213C40.738 2.334 38.397 0 35.51 0c-2.888 0-5.229 2.334-5.229 5.212 0 2.88 2.34 5.213 5.229 5.213Z" fill="url(#d)"/></mask><g mask="url(#e)"><path d="M35.51 10.425c2.887 0 5.228-2.334 5.228-5.213C40.738 2.334 38.397 0 35.51 0c-2.888 0-5.229 2.334-5.229 5.212 0 2.88 2.34 5.213 5.229 5.213Z" fill="url(#f)"/></g><mask id="h" style="mask-type:alpha" maskUnits="userSpaceOnUse" x="60" y="0" width="12" height="11"><path d="M65.79 10.425c2.888 0 5.229-2.334 5.229-5.213C71.019 2.334 68.679 0 65.79 0c-2.887 0-5.228 2.334-5.228 5.212 0 2.88 2.341 5.213 5.228 5.213Z" fill="url(#g)"/></mask><g mask="url(#h)"><path d="M65.79 10.425c2.888 0 5.229-2.334 5.229-5.213C71.019 2.334 68.679 0 65.79 0c-2.887 0-5.228 2.334-5.228 5.212 0 2.88 2.341 5.213 5.228 5.213Z" fill="url(#i)"/></g><mask id="k" style="mask-type:alpha" maskUnits="userSpaceOnUse" x="90" y="0" width="12" height="11"><path d="M96.072 10.425c2.887 0 5.228-2.334 5.228-5.213C101.3 2.334 98.96 0 96.072 0s-5.229 2.334-5.229 5.212c0 2.88 2.341 5.213 5.229 5.213Z" fill="url(#j)"/></mask><g mask="url(#k)"><path d="M96.072 10.425c2.887 0 5.228-2.334 5.228-5.213C101.3 2.334 98.96 0 96.072 0s-5.229 2.334-5.229 5.212c0 2.88 2.341 5.213 5.229 5.213Z" fill="url(#l)"/></g><mask id="n" style="mask-type:alpha" maskUnits="userSpaceOnUse" x="121" y="0" width="11" height="11"><path d="M126.353 10.425c2.887 0 5.228-2.334 5.228-5.213 0-2.878-2.341-5.212-5.228-5.212-2.888 0-5.229 2.334-5.229 5.212 0 2.88 2.341 5.213 5.229 5.213Z" fill="url(#m)"/></mask><g mask="url(#n)"><path d="M126.353 10.425c2.887 0 5.228-2.334 5.228-5.213 0-2.878-2.341-5.212-5.228-5.212-2.888 0-5.229 2.334-5.229 5.212 0 2.88 2.341 5.213 5.229 5.213Z" fill="url(#o)"/></g><mask id="q" style="mask-type:alpha" maskUnits="userSpaceOnUse" x="0" y="26" width="11" height="11"><path d="M5.228 36.596c2.888 0 5.229-2.334 5.229-5.213 0-2.878-2.341-5.212-5.229-5.212C2.341 26.171 0 28.505 0 31.383c0 2.88 2.34 5.213 5.228 5.213Z" fill="url(#p)"/></mask><g mask="url(#q)"><path d="M5.228 36.596c2.888 0 5.229-2.334 5.229-5.213 0-2.878-2.341-5.212-5.229-5.212C2.341 26.171 0 28.505 0 31.383c0 2.88 2.34 5.213 5.228 5.213Z" fill="url(#r)"/></g><mask id="t" style="mask-type:alpha" maskUnits="userSpaceOnUse" x="30" y="26" width="11" height="11"><path d="M35.51 36.596c2.887 0 5.228-2.334 5.228-5.213 0-2.878-2.341-5.212-5.228-5.212-2.888 0-5.229 2.334-5.229 5.212 0 2.88 2.34 5.213 5.229 5.213Z" fill="url(#s)"/></mask><g mask="url(#t)"><path d="M35.51 36.596c2.887 0 5.228-2.334 5.228-5.213 0-2.878-2.341-5.212-5.228-5.212-2.888 0-5.229 2.334-5.229 5.212 0 2.88 2.34 5.213 5.229 5.213Z" fill="url(#u)"/></g><mask id="w" style="mask-type:alpha" maskUnits="userSpaceOnUse" x="60" y="26" width="12" height="11"><path d="M65.79 36.596c2.888 0 5.229-2.334 5.229-5.213 0-2.878-2.34-5.212-5.229-5.212-2.887 0-5.228 2.334-5.228 5.212 0 2.88 2.341 5.213 5.228 5.213Z" fill="url(#v)"/></mask><g mask="url(#w)"><path d="M65.79 36.596c2.888 0 5.229-2.334 5.229-5.213 0-2.878-2.34-5.212-5.229-5.212-2.887 0-5.228 2.334-5.228 5.212 0 2.88 2.341 5.213 5.228 5.213Z" fill="url(#x)"/></g><mask id="z" style="mask-type:alpha" maskUnits="userSpaceOnUse" x="90" y="26" width="12" height="11"><path d="M96.072 36.596c2.887 0 5.228-2.334 5.228-5.213 0-2.878-2.34-5.212-5.228-5.212s-5.229 2.334-5.229 5.212c0 2.88 2.341 5.213 5.229 5.213Z" fill="url(#y)"/></mask><g mask="url(#z)"><path d="M96.072 36.596c2.887 0 5.228-2.334 5.228-5.213 0-2.878-2.34-5.212-5.228-5.212s-5.229 2.334-5.229 5.212c0 2.88 2.341 5.213 5.229 5.213Z" fill="url(#A)"/></g><mask id="C" style="mask-type:alpha" maskUnits="userSpaceOnUse" x="121" y="26" width="11" height="11"><path d="M126.353 36.596c2.887 0 5.228-2.334 5.228-5.213 0-2.878-2.341-5.212-5.228-5.212-2.888 0-5.229 2.334-5.229 5.212 0 2.88 2.341 5.213 5.229 5.213Z" fill="url(#B)"/></mask><g mask="url(#C)"><path d="M126.353 36.596c2.887 0 5.228-2.334 5.228-5.213 0-2.878-2.341-5.212-5.228-5.212-2.888 0-5.229 2.334-5.229 5.212 0 2.88 2.341 5.213 5.229 5.213Z" fill="url(#D)"/></g><mask id="F" style="mask-type:alpha" maskUnits="userSpaceOnUse" x="0" y="52" width="11" height="11"><path d="M5.228 62.712c2.888 0 5.229-2.333 5.229-5.212 0-2.879-2.341-5.212-5.229-5.212C2.341 52.288 0 54.62 0 57.5c0 2.879 2.34 5.212 5.228 5.212Z" fill="url(#E)"/></mask><g mask="url(#F)"><path d="M5.228 62.712c2.888 0 5.229-2.333 5.229-5.212 0-2.879-2.341-5.212-5.229-5.212C2.341 52.288 0 54.62 0 57.5c0 2.879 2.34 5.212 5.228 5.212Z" fill="url(#G)"/></g><mask id="I" style="mask-type:alpha" maskUnits="userSpaceOnUse" x="30" y="52" width="11" height="11"><path d="M35.51 62.712c2.887 0 5.228-2.333 5.228-5.212 0-2.879-2.341-5.212-5.228-5.212-2.888 0-5.229 2.333-5.229 5.212 0 2.879 2.34 5.212 5.229 5.212Z" fill="url(#H)"/></mask><g mask="url(#I)"><path d="M35.51 62.712c2.887 0 5.228-2.333 5.228-5.212 0-2.879-2.341-5.212-5.228-5.212-2.888 0-5.229 2.333-5.229 5.212 0 2.879 2.34 5.212 5.229 5.212Z" fill="url(#J)"/></g><mask id="L" style="mask-type:alpha" maskUnits="userSpaceOnUse" x="60" y="52" width="12" height="11"><path d="M65.79 62.712c2.888 0 5.229-2.333 5.229-5.212 0-2.879-2.34-5.212-5.229-5.212-2.887 0-5.228 2.333-5.228 5.212 0 2.879 2.341 5.212 5.228 5.212Z" fill="url(#K)"/></mask><g mask="url(#L)"><path d="M65.79 62.712c2.888 0 5.229-2.333 5.229-5.212 0-2.879-2.34-5.212-5.229-5.212-2.887 0-5.228 2.333-5.228 5.212 0 2.879 2.341 5.212 5.228 5.212Z" fill="url(#M)"/></g><mask id="O" style="mask-type:alpha" maskUnits="userSpaceOnUse" x="90" y="52" width="12" height="11"><path d="M96.072 62.712c2.887 0 5.228-2.333 5.228-5.212 0-2.879-2.34-5.212-5.228-5.212s-5.229 2.333-5.229 5.212c0 2.879 2.341 5.212 5.229 5.212Z" fill="url(#N)"/></mask><g mask="url(#O)"><path d="M96.072 62.712c2.887 0 5.228-2.333 5.228-5.212 0-2.879-2.34-5.212-5.228-5.212s-5.229 2.333-5.229 5.212c0 2.879 2.341 5.212 5.229 5.212Z" fill="url(#P)"/></g><mask id="R" style="mask-type:alpha" maskUnits="userSpaceOnUse" x="121" y="52" width="11" height="11"><path d="M126.353 62.712c2.887 0 5.228-2.333 5.228-5.212 0-2.879-2.341-5.212-5.228-5.212-2.888 0-5.229 2.333-5.229 5.212 0 2.879 2.341 5.212 5.229 5.212Z" fill="url(#Q)"/></mask><g mask="url(#R)"><path d="M126.353 62.712c2.887 0 5.228-2.333 5.228-5.212 0-2.879-2.341-5.212-5.228-5.212-2.888 0-5.229 2.333-5.229 5.212 0 2.879 2.341 5.212 5.229 5.212Z" fill="url(#S)"/></g><mask id="U" style="mask-type:alpha" maskUnits="userSpaceOnUse" x="0" y="78" width="11" height="11"><path d="M5.228 88.883c2.888 0 5.229-2.333 5.229-5.212 0-2.879-2.341-5.213-5.229-5.213C2.341 78.458 0 80.792 0 83.671s2.34 5.212 5.228 5.212Z" fill="url(#T)"/></mask><g mask="url(#U)"><path d="M5.228 88.883c2.888 0 5.229-2.333 5.229-5.212 0-2.879-2.341-5.213-5.229-5.213C2.341 78.458 0 80.792 0 83.671s2.34 5.212 5.228 5.212Z" fill="url(#V)"/></g><mask id="X" style="mask-type:alpha" maskUnits="userSpaceOnUse" x="30" y="78" width="11" height="11"><path d="M35.51 88.883c2.887 0 5.228-2.333 5.228-5.212 0-2.879-2.341-5.213-5.228-5.213-2.888 0-5.229 2.334-5.229 5.213s2.34 5.212 5.229 5.212Z" fill="url(#W)"/></mask><g mask="url(#X)"><path d="M35.51 88.883c2.887 0 5.228-2.333 5.228-5.212 0-2.879-2.341-5.213-5.228-5.213-2.888 0-5.229 2.334-5.229 5.213s2.34 5.212 5.229 5.212Z" fill="url(#Y)"/></g><mask id="aa" style="mask-type:alpha" maskUnits="userSpaceOnUse" x="60" y="78" width="12" height="11"><path d="M65.79 88.883c2.888 0 5.229-2.333 5.229-5.212 0-2.879-2.34-5.213-5.229-5.213-2.887 0-5.228 2.334-5.228 5.213s2.341 5.212 5.228 5.212Z" fill="url(#Z)"/></mask><g mask="url(#aa)"><path d="M65.79 88.883c2.888 0 5.229-2.333 5.229-5.212 0-2.879-2.34-5.213-5.229-5.213-2.887 0-5.228 2.334-5.228 5.213s2.341 5.212 5.228 5.212Z" fill="url(#ab)"/></g><mask id="ad" style="mask-type:alpha" maskUnits="userSpaceOnUse" x="90" y="78" width="12" height="11"><path d="M96.072 88.883c2.887 0 5.228-2.333 5.228-5.212 0-2.879-2.34-5.213-5.228-5.213s-5.229 2.334-5.229 5.213 2.341 5.212 5.229 5.212Z" fill="url(#ac)"/></mask><g mask="url(#ad)"><path d="M96.072 88.883c2.887 0 5.228-2.333 5.228-5.212 0-2.879-2.34-5.213-5.228-5.213s-5.229 2.334-5.229 5.213 2.341 5.212 5.229 5.212Z" fill="url(#ae)"/></g><mask id="ag" style="mask-type:alpha" maskUnits="userSpaceOnUse" x="121" y="78" width="11" height="11"><path d="M126.353 88.883c2.887 0 5.228-2.333 5.228-5.212 0-2.879-2.341-5.213-5.228-5.213-2.888 0-5.229 2.334-5.229 5.213s2.341 5.212 5.229 5.212Z" fill="url(#af)"/></mask><g mask="url(#ag)"><path d="M126.353 88.883c2.887 0 5.228-2.333 5.228-5.212 0-2.879-2.341-5.213-5.228-5.213-2.888 0-5.229 2.334-5.229 5.213s2.341 5.212 5.229 5.212Z" fill="url(#ah)"/></g><mask id="aj" style="mask-type:alpha" maskUnits="userSpaceOnUse" x="0" y="104" width="11" height="11"><path d="M5.228 115c2.888 0 5.229-2.334 5.229-5.212 0-2.879-2.341-5.213-5.229-5.213-2.887 0-5.228 2.334-5.228 5.213C0 112.666 2.34 115 5.228 115Z" fill="url(#ai)"/></mask><g mask="url(#aj)"><path d="M5.228 115c2.888 0 5.229-2.334 5.229-5.212 0-2.879-2.341-5.213-5.229-5.213-2.887 0-5.228 2.334-5.228 5.213C0 112.666 2.34 115 5.228 115Z" fill="url(#ak)"/></g><mask id="am" style="mask-type:alpha" maskUnits="userSpaceOnUse" x="30" y="104" width="11" height="11"><path d="M35.51 115c2.887 0 5.228-2.334 5.228-5.212 0-2.879-2.341-5.213-5.228-5.213-2.888 0-5.229 2.334-5.229 5.213 0 2.878 2.34 5.212 5.229 5.212Z" fill="url(#al)"/></mask><g mask="url(#am)"><path d="M35.51 115c2.887 0 5.228-2.334 5.228-5.212 0-2.879-2.341-5.213-5.228-5.213-2.888 0-5.229 2.334-5.229 5.213 0 2.878 2.34 5.212 5.229 5.212Z" fill="url(#an)"/></g><mask id="ap" style="mask-type:alpha" maskUnits="userSpaceOnUse" x="60" y="104" width="12" height="11"><path d="M65.79 115c2.888 0 5.229-2.334 5.229-5.212 0-2.879-2.34-5.213-5.229-5.213-2.887 0-5.228 2.334-5.228 5.213 0 2.878 2.341 5.212 5.228 5.212Z" fill="url(#ao)"/></mask><g mask="url(#ap)"><path d="M65.79 115c2.888 0 5.229-2.334 5.229-5.212 0-2.879-2.34-5.213-5.229-5.213-2.887 0-5.228 2.334-5.228 5.213 0 2.878 2.341 5.212 5.228 5.212Z" fill="url(#aq)"/></g><mask id="as" style="mask-type:alpha" maskUnits="userSpaceOnUse" x="90" y="104" width="12" height="11"><path d="M96.072 115c2.887 0 5.228-2.334 5.228-5.212 0-2.879-2.34-5.213-5.228-5.213s-5.229 2.334-5.229 5.213c0 2.878 2.341 5.212 5.229 5.212Z" fill="url(#ar)"/></mask><g mask="url(#as)"><path d="M96.072 115c2.887 0 5.228-2.334 5.228-5.212 0-2.879-2.34-5.213-5.228-5.213s-5.229 2.334-5.229 5.213c0 2.878 2.341 5.212 5.229 5.212Z" fill="url(#at)"/></g><mask id="av" style="mask-type:alpha" maskUnits="userSpaceOnUse" x="121" y="104" width="11" height="11"><path d="M126.353 115c2.887 0 5.228-2.334 5.228-5.212 0-2.879-2.341-5.213-5.228-5.213-2.888 0-5.229 2.334-5.229 5.213 0 2.878 2.341 5.212 5.229 5.212Z" fill="url(#au)"/></mask><g mask="url(#av)"><path d="M126.353 115c2.887 0 5.228-2.334 5.228-5.212 0-2.879-2.341-5.213-5.228-5.213-2.888 0-5.229 2.334-5.229 5.213 0 2.878 2.341 5.212 5.229 5.212Z" fill="url(#aw)"/></g></g><defs><linearGradient id="a" x1="54.996" y1="131.134" x2="-16.406" y2="-50.67" gradientUnits="userSpaceOnUse"><stop/><stop offset="1" stop-color="#fff"/></linearGradient><linearGradient id="c" x1="54.996" y1="131.134" x2="-16.406" y2="-50.67" gradientUnits="userSpaceOnUse"><stop stop-color="#97C3F9"/><stop offset="1" stop-color="#93C1F9"/></linearGradient><linearGradient id="d" x1="81.201" y1="120.843" x2="9.799" y2="-60.961" gradientUnits="userSpaceOnUse"><stop/><stop offset="1" stop-color="#fff"/></linearGradient><linearGradient id="f" x1="81.201" y1="120.843" x2="9.799" y2="-60.961" gradientUnits="userSpaceOnUse"><stop stop-color="#97C3F9"/><stop offset="1" stop-color="#93C1F9"/></linearGradient><linearGradient id="g" x1="107.405" y1="110.551" x2="36.003" y2="-71.253" gradientUnits="userSpaceOnUse"><stop/><stop offset="1" stop-color="#fff"/></linearGradient><linearGradient id="i" x1="107.405" y1="110.551" x2="36.003" y2="-71.253" gradientUnits="userSpaceOnUse"><stop stop-color="#97C3F9"/><stop offset="1" stop-color="#93C1F9"/></linearGradient><linearGradient id="j" x1="133.609" y1="100.259" x2="62.208" y2="-81.544" gradientUnits="userSpaceOnUse"><stop/><stop offset="1" stop-color="#fff"/></linearGradient><linearGradient id="l" x1="133.609" y1="100.259" x2="62.208" y2="-81.544" gradientUnits="userSpaceOnUse"><stop stop-color="#97C3F9"/><stop offset="1" stop-color="#93C1F9"/></linearGradient><linearGradient id="m" x1="159.813" y1="89.968" x2="88.412" y2="-91.836" gradientUnits="userSpaceOnUse"><stop/><stop offset="1" stop-color="#fff"/></linearGradient><linearGradient id="o" x1="159.813" y1="89.968" x2="88.412" y2="-91.836" gradientUnits="userSpaceOnUse"><stop stop-color="#97C3F9"/><stop offset="1" stop-color="#93C1F9"/></linearGradient><linearGradient id="p" x1="46.054" y1="134.645" x2="-25.347" y2="-47.157" gradientUnits="userSpaceOnUse"><stop/><stop offset="1" stop-color="#fff"/></linearGradient><linearGradient id="r" x1="46.054" y1="134.645" x2="-25.347" y2="-47.157" gradientUnits="userSpaceOnUse"><stop stop-color="#97C3F9"/><stop offset="1" stop-color="#93C1F9"/></linearGradient><linearGradient id="s" x1="72.258" y1="124.354" x2=".858" y2="-57.449" gradientUnits="userSpaceOnUse"><stop/><stop offset="1" stop-color="#fff"/></linearGradient><linearGradient id="u" x1="72.258" y1="124.354" x2=".858" y2="-57.449" gradientUnits="userSpaceOnUse"><stop stop-color="#97C3F9"/><stop offset="1" stop-color="#93C1F9"/></linearGradient><linearGradient id="v" x1="98.462" y1="114.062" x2="27.062" y2="-67.74" gradientUnits="userSpaceOnUse"><stop/><stop offset="1" stop-color="#fff"/></linearGradient><linearGradient id="x" x1="98.462" y1="114.062" x2="27.062" y2="-67.74" gradientUnits="userSpaceOnUse"><stop stop-color="#97C3F9"/><stop offset="1" stop-color="#93C1F9"/></linearGradient><linearGradient id="y" x1="124.667" y1="103.771" x2="53.266" y2="-78.032" gradientUnits="userSpaceOnUse"><stop/><stop offset="1" stop-color="#fff"/></linearGradient><linearGradient id="A" x1="124.667" y1="103.771" x2="53.266" y2="-78.032" gradientUnits="userSpaceOnUse"><stop stop-color="#97C3F9"/><stop offset="1" stop-color="#93C1F9"/></linearGradient><linearGradient id="B" x1="150.871" y1="93.479" x2="79.471" y2="-88.323" gradientUnits="userSpaceOnUse"><stop/><stop offset="1" stop-color="#fff"/></linearGradient><linearGradient id="D" x1="150.871" y1="93.479" x2="79.471" y2="-88.323" gradientUnits="userSpaceOnUse"><stop stop-color="#97C3F9"/><stop offset="1" stop-color="#93C1F9"/></linearGradient><linearGradient id="E" x1="37.111" y1="138.158" x2="-34.29" y2="-43.646" gradientUnits="userSpaceOnUse"><stop/><stop offset="1" stop-color="#fff"/></linearGradient><linearGradient id="G" x1="37.111" y1="138.158" x2="-34.29" y2="-43.646" gradientUnits="userSpaceOnUse"><stop stop-color="#97C3F9"/><stop offset="1" stop-color="#93C1F9"/></linearGradient><linearGradient id="H" x1="63.316" y1="127.866" x2="-8.086" y2="-53.937" gradientUnits="userSpaceOnUse"><stop/><stop offset="1" stop-color="#fff"/></linearGradient><linearGradient id="J" x1="63.316" y1="127.866" x2="-8.086" y2="-53.937" gradientUnits="userSpaceOnUse"><stop stop-color="#97C3F9"/><stop offset="1" stop-color="#93C1F9"/></linearGradient><linearGradient id="K" x1="89.52" y1="117.575" x2="18.119" y2="-64.229" gradientUnits="userSpaceOnUse"><stop/><stop offset="1" stop-color="#fff"/></linearGradient><linearGradient id="M" x1="89.52" y1="117.575" x2="18.119" y2="-64.229" gradientUnits="userSpaceOnUse"><stop stop-color="#97C3F9"/><stop offset="1" stop-color="#93C1F9"/></linearGradient><linearGradient id="N" x1="115.724" y1="107.283" x2="44.323" y2="-74.52" gradientUnits="userSpaceOnUse"><stop/><stop offset="1" stop-color="#fff"/></linearGradient><linearGradient id="P" x1="115.724" y1="107.283" x2="44.323" y2="-74.52" gradientUnits="userSpaceOnUse"><stop stop-color="#97C3F9"/><stop offset="1" stop-color="#93C1F9"/></linearGradient><linearGradient id="Q" x1="141.929" y1="96.992" x2="70.527" y2="-84.812" gradientUnits="userSpaceOnUse"><stop/><stop offset="1" stop-color="#fff"/></linearGradient><linearGradient id="S" x1="141.929" y1="96.992" x2="70.527" y2="-84.812" gradientUnits="userSpaceOnUse"><stop stop-color="#97C3F9"/><stop offset="1" stop-color="#93C1F9"/></linearGradient><linearGradient id="T" x1="28.169" y1="141.67" x2="-43.233" y2="-40.134" gradientUnits="userSpaceOnUse"><stop/><stop offset="1" stop-color="#fff"/></linearGradient><linearGradient id="V" x1="28.169" y1="141.67" x2="-43.233" y2="-40.134" gradientUnits="userSpaceOnUse"><stop stop-color="#97C3F9"/><stop offset="1" stop-color="#93C1F9"/></linearGradient><linearGradient id="W" x1="54.373" y1="131.378" x2="-17.028" y2="-50.425" gradientUnits="userSpaceOnUse"><stop/><stop offset="1" stop-color="#fff"/></linearGradient><linearGradient id="Y" x1="54.373" y1="131.378" x2="-17.028" y2="-50.425" gradientUnits="userSpaceOnUse"><stop stop-color="#97C3F9"/><stop offset="1" stop-color="#93C1F9"/></linearGradient><linearGradient id="Z" x1="80.578" y1="121.087" x2="9.176" y2="-60.717" gradientUnits="userSpaceOnUse"><stop/><stop offset="1" stop-color="#fff"/></linearGradient><linearGradient id="ab" x1="80.578" y1="121.087" x2="9.176" y2="-60.717" gradientUnits="userSpaceOnUse"><stop stop-color="#97C3F9"/><stop offset="1" stop-color="#93C1F9"/></linearGradient><linearGradient id="ac" x1="106.782" y1="110.795" x2="35.38" y2="-71.008" gradientUnits="userSpaceOnUse"><stop/><stop offset="1" stop-color="#fff"/></linearGradient><linearGradient id="ae" x1="106.782" y1="110.795" x2="35.38" y2="-71.008" gradientUnits="userSpaceOnUse"><stop stop-color="#97C3F9"/><stop offset="1" stop-color="#93C1F9"/></linearGradient><linearGradient id="af" x1="132.986" y1="100.504" x2="61.585" y2="-81.3" gradientUnits="userSpaceOnUse"><stop/><stop offset="1" stop-color="#fff"/></linearGradient><linearGradient id="ah" x1="132.986" y1="100.504" x2="61.585" y2="-81.3" gradientUnits="userSpaceOnUse"><stop stop-color="#97C3F9"/><stop offset="1" stop-color="#93C1F9"/></linearGradient><linearGradient id="ai" x1="19.227" y1="145.182" x2="-52.175" y2="-36.622" gradientUnits="userSpaceOnUse"><stop/><stop offset="1" stop-color="#fff"/></linearGradient><linearGradient id="ak" x1="19.227" y1="145.182" x2="-52.175" y2="-36.622" gradientUnits="userSpaceOnUse"><stop stop-color="#97C3F9"/><stop offset="1" stop-color="#93C1F9"/></linearGradient><linearGradient id="al" x1="45.431" y1="134.89" x2="-25.971" y2="-46.913" gradientUnits="userSpaceOnUse"><stop/><stop offset="1" stop-color="#fff"/></linearGradient><linearGradient id="an" x1="45.431" y1="134.89" x2="-25.971" y2="-46.913" gradientUnits="userSpaceOnUse"><stop stop-color="#97C3F9"/><stop offset="1" stop-color="#93C1F9"/></linearGradient><linearGradient id="ao" x1="71.635" y1="124.599" x2=".234" y2="-57.205" gradientUnits="userSpaceOnUse"><stop/><stop offset="1" stop-color="#fff"/></linearGradient><linearGradient id="aq" x1="71.635" y1="124.599" x2=".234" y2="-57.205" gradientUnits="userSpaceOnUse"><stop stop-color="#97C3F9"/><stop offset="1" stop-color="#93C1F9"/></linearGradient><linearGradient id="ar" x1="97.84" y1="114.307" x2="26.438" y2="-67.496" gradientUnits="userSpaceOnUse"><stop/><stop offset="1" stop-color="#fff"/></linearGradient><linearGradient id="at" x1="97.84" y1="114.307" x2="26.438" y2="-67.496" gradientUnits="userSpaceOnUse"><stop stop-color="#97C3F9"/><stop offset="1" stop-color="#93C1F9"/></linearGradient><linearGradient id="au" x1="124.044" y1="104.016" x2="52.642" y2="-77.788" gradientUnits="userSpaceOnUse"><stop/><stop offset="1" stop-color="#fff"/></linearGradient><linearGradient id="aw" x1="124.044" y1="104.016" x2="52.642" y2="-77.788" gradientUnits="userSpaceOnUse"><stop stop-color="#97C3F9"/><stop offset="1" stop-color="#93C1F9"/></linearGradient></defs></svg>